<svg enable-background="new 0 0 32 32" viewBox="0 0 32 32" xmlns="http://www.w3.org/2000/svg"><g fill="none" stroke="#f7f7f2" stroke-linecap="round" stroke-linejoin="round" stroke-width="1.5" transform="scale(1.33333)"><path d="m6.7 23.2c-3.3 0-6-2.7-6-6v-10.4c0-3.3 2.7-6 6-6h10.5c3.3 0 6 2.7 6 6v10.5c0 3.3-2.7 6-6 6h-10.5z"/><path d="m15.5 8.5c2 2 2 5.1 0 7.1s-5.1 2-7.1 0-2-5.1 0-7.1 5.2-2 7.1 0"/><path d="m19.3 5.2c0 .3-.2.5-.5.5s-.5-.2-.5-.5"/><path d="m18.3 5.2c0-.3.2-.5.5-.5s.5.2.5.5"/></g></svg>