<svg enable-background="new 0 0 32 32" viewBox="0 0 32 32" xmlns="http://www.w3.org/2000/svg"><path d="m19.2 29.8c0 .4.3.7.7.7h.2c8-2.3 12.5-10.6 10.3-18.6-2.4-8-10.7-12.6-18.7-10.3-7.9 2.3-12.5 10.6-10.2 18.6 1.4 5 5.3 8.8 10.3 10.3.4.1.7-.1.8-.5 0-.1 0-.1 0-.2v-3.1c-1.9.6-3.9-.4-4.6-2.3-.4-1.1-1-2.2-1.8-3 3.8.9 3.9 3.4 6.5 2.2.1-.9.4-1.7.8-2.4-2.9-.3-6-.8-6-5.9 0-1.3.5-2.6 1.3-3.5-.4-1.1-.4-2.4.1-3.5 0 0 1.1-.4 3.6 1.3 2.2-.6 4.5-.6 6.7 0 2.5-1.7 3.6-1.3 3.6-1.3.5 1.1.5 2.4.1 3.5.9 1 1.4 2.2 1.3 3.5 0 5.1-3.1 5.5-6 5.9.6.9.9 2 .9 3.1z" fill="none" stroke="#f7f7f2" stroke-linecap="round" stroke-linejoin="round" stroke-width="1.5"/></svg>