<svg fill="none" height="17" viewBox="0 0 17 17" width="17" xmlns="http://www.w3.org/2000/svg"><path clip-rule="evenodd" d="m15.8972 8.73246c-.13.25839-.2635.35104-.3207.35104-.2393 0-.4335.19124-.4335.42498 0 .23458.1942.42498.4335.42498.0364 0 .0624-.00001.1014.06629.0572.09945.091.27285.091.47515 0 .3782-.1092.827-.2852 1.1746-.1717.3392-.3459.4624-.4222.4624-.2393 0-.4334.1895-.4334.425 0 .1496.0797.283.2011.3578.026.2703-.1023.9902-.4344 1.4602-.1265.1777-.2592.2797-.3632.2797-.2393 0-.4335.1912-.4335.4249 0 .748-.8427 1.0897-1.6256 1.0897-2.17861 0-2.78889-.3196-3.49545-.691-.66061-.3451-1.40274-.7344-3.27795-.9639v-6.95772c1.82146-.58648 3.59956-1.59537 5.0387-2.86691 1.381-1.22139 2.2879-2.54053 2.5956-3.761917.2358.073946.502.229487.6728.524417.2896.50233.5063 1.78237-1.2943 4.72407-.0807.13005-.0824.29408-.0052.42838.0771.13344.221.21589.377.21589h3.0196c.1726 0 .2835.05949.3728.19889.1015.15809.157.40543.157.69186 0 .36038-.0885.74967-.2359 1.04205zm-11.99766 6.56674h-2.60083c-.23928 0-.433476-.1904-.433476-.4249v-7.64966c0-.23544.194196-.42498.433476-.42498h2.60083c.23927 0 .43347.18954.43347.42498v7.64876.0009c0 .2345-.1942.4249-.43347.4249zm12.49796-5.77288c.3849-.43433.6025-1.15169.6025-1.83591 0-.45132-.0997-.84655-.2887-1.14234-.2462-.38588-.6398-.59837-1.108-.59837h-2.2696c1.2354-2.20224 1.5475-3.86135.9276-4.9357-.4326-.748812-1.225-1.014-1.7729-1.014-.2167 0-.4005.15724-.4291.36718-.1544 1.12194-1.03 2.45978-2.39975 3.67097-1.31256 1.16019-2.92511 2.0875-4.58185 2.64337-.2098-.43178-.65802-.73097-1.17645-.73097h-2.60083c-.716971 0-1.30042.57117-1.30042 1.27494v7.64961c0 .7029.583449 1.2749 1.30042 1.2749h2.60083c.54964 0 1.01958-.3365 1.21118-.81 1.70008.21 2.33899.5448 2.95886.8695.77592.4055 1.50761.7905 3.90471.7905.6234 0 1.2112-.1606 1.655-.4505.4335-.283.7109-.6808.8037-1.1415.345-.1377.652-.4555.8869-.9273.2297-.4598.3771-1.048.3771-1.4968 0-.0849-.0052-.1614-.0147-.2328.2193-.1581.4161-.4021.5782-.7233.2341-.4641.3754-1.0447.3754-1.5521 0-.3604-.0693-.66124-.2037-.89328-.0113-.0187-.0225-.0374-.0338-.05524z" fill="#fff" fill-rule="evenodd"/></svg>