<svg height="64" viewBox="0 0 64 64" width="64" xmlns="http://www.w3.org/2000/svg"><g fill="none" fill-rule="evenodd" transform="translate(7 12)"><path d="m2.63157895 37.4747475h44.73684215v-22.7272728h-44.73684215zm46.05263155 2.5252525h-47.36842103c-.72631579 0-1.31578947-.5656566-1.31578947-1.2626263v-25.2525252c0-.6969697.58947368-1.2626263 1.31578947-1.2626263h47.36842103c.7263158 0 1.3157895.5656566 1.3157895 1.2626263v25.2525252c0 .6969697-.5894737 1.2626263-1.3157895 1.2626263z" fill="#062e51"/><path d="m31.8888889 24.7619048h-10.1111111v-2.6984127h10.1111111c.7973333 0 1.4444444-.6044445 1.4444444-1.3492064s-.6471111-1.3492063-1.4444444-1.3492063h-4.3333333v-1.3492064c0-.7447619-.6471112-1.3492063-1.4444445-1.3492063s-1.4444444.6044444-1.4444444 1.3492063v1.3492064h-4.3333334c-.7973333 0-1.4444444.6044444-1.4444444 1.3492063v5.3968254c0 .7447619.6471111 1.3492064 1.4444444 1.3492064h10.1111111v2.6984127h-10.1111111c-.7973333 0-1.4444444.6044444-1.4444444 1.3492063s.6471111 1.3492064 1.4444444 1.3492064h4.3333334v1.3492063c0 .7447619.6471111 1.3492064 1.4444444 1.3492064s1.4444445-.6044445 1.4444445-1.3492064v-1.3492063h4.3333333c.7973333 0 1.4444444-.6044445 1.4444444-1.3492064v-5.3968254c0-.7447619-.6471111-1.3492063-1.4444444-1.3492063" fill="#f7921e"/><g fill="#062e51"><path d="m47.5490196 8.88888889h-42.87581699c-.73960784 0-1.33986928-.74666667-1.33986928-1.66666667s.60026144-1.66666666 1.33986928-1.66666666h42.87581699c.7396079 0 1.3398693.74666666 1.3398693 1.66666666s-.6002614 1.66666667-1.3398693 1.66666667"/><path d="m44.2592593 3.33333333h-36.29629634c-.71555555 0-1.29629629-.74666666-1.29629629-1.66666666s.58074074-1.66666667 1.29629629-1.66666667h36.29629634c.7155555 0 1.2962963.74666667 1.2962963 1.66666667s-.5807408 1.66666666-1.2962963 1.66666666"/></g></g></svg>