<svg height="64" viewBox="0 0 64 64" width="64" xmlns="http://www.w3.org/2000/svg"><g fill="none"><g fill="#062e51"><path d="m36.6679688 45.4701927c.0097656.4338862-.3222657.798745-.7519532.808606-.4296875.0098611-.7910156-.3254146-.8007812-.7593007-.0488281-1.3509637-1.1328125-1.7256836-1.4160156-1.7947109h-9.5019532c-.078125 0-.1660156-.0098611-.234375-.0394442-.0488281-.0098611-.1171875-.0295832-.1953125-.0591663-.0097656 0-.0097656 0-.0195312-.009861-1.6015625-.5127746-4.4921875-1.5186016-7.2265625-2.4652623-2.96875-1.025549-5.7519531-1.9919318-6.3378906-2.1595697-.8789063-.2465262-1.44531255.9565218-1.44531255.9565218-.00976562.009861-.00976562.0295831-.01953125.0394442-.41015625.7395786.12695313 1.4791573.3125 1.7158225l18.4863281 10.3738234c.0097657.009861.0292969.009861.0390625.0197221 1.1328125.6606902 2.1972657.1380547 2.4023438.0295831.0585937-.0394442.1171875-.0690273.1953125-.0986105l13.7207031-4.5755266c.0878906-.0295832.1757813-.0493053.2734375-.0493053h3.0566406c.4296875 0 .78125.3549978.78125.7888839 0 .4338862-.3515625.7888839-.78125.7888839h-2.9394531l-13.5742187 4.5262215c-.4199219.2268041-2.1289063.9959659-3.9160157-.0493053l-.0195312-.009861-18.60351565-10.4428508c-.06835937-.0394442-.12695312-.0887494-.17578125-.1380547 0-.009861-1.66015625-1.6961004-.64453125-3.6091438 0-.0098611 1.11328125-2.3962349 3.26171875-1.7947109.6933594.1972209 3.4667969 1.1537427 6.4257813 2.1792918 1.6210937.5620797 3.2910156 1.1438816 4.6777343 1.617212-.0488281-.2563873-.078125-.5423577-.078125-.8480502.0292969-2.8597042 2.8417969-3.1851188 2.8417969-3.1851188.0292969 0 .0683594-.0098611.0976563-.0098611h7.1484375c.9472656-.4338861 5.8203125-2.623039 8.4472656-3.0963693h.0292969c1.171875-.207082 2.6269531-.2761094 3.9453125-.2761094 1.328125 0 2.4902343.0493053 3.1054687.0887495.4296875.0295831.7617188.3944419.7324219.8283281-.0292969.4338861-.390625.7691618-.8203125.7395786-.6152344-.0394442-1.7578125-.0986104-3.0078125-.0887494-1.2304688 0-2.5878906.0690273-3.6816406.2563873-.0097657 0-.0195313 0-.0292969.009861-2.5683594.4634693-7.5683594 2.7413716-8.1738281 3.017481-.1171875.0690273-.2441407.0986105-.3808594.0986105h-7.2753906c-.2734375.0493052-1.4160157.3352756-1.4355469 1.6369341 0 .3056925.0390625.5522187.1074219.7593007.078125.2169431.1855468.394442.3125.5226356.2050781.2169431.4296875.3352757.5761718.3845809l.0292969.0098611c.0195313 0 .0292969.009861.0390625.0197221l.0195313.009861h9.5019531c.0488281 0 .0976562 0 .1464844.0098611.0097656 0 2.6464843.4831914 2.7441406 3.3133124z"/><path d="m55.2519531 31.9605558h-6.8066406c-.0488281 0-.0976562.0197221-.1269531.0493052-.0390625.0394442-.0585938.0788884-.0585938.1281937v18.5486329c0 .0493052.0195313.0986105.0585938.1281936.0097656.0098611.0097656.0098611.0195312.0197221.0292969.0197221.0683594.0394442.1171875.0394442h6.8066407c.0488281 0 .0976562-.0197221.1269531-.0493052.0292969-.0295832.0488281-.0788884.0488281-.1281937v-18.5486329c0-.0493052-.0195312-.0986105-.0488281-.1281936s-.078125-.0493052-.1269531-.0493052zm-6.8066406-1.5777678h6.8066406c.4785157 0 .9082032.197221 1.2304688.5127745.3125.3254146.5175781.7593008.5175781 1.2424922v18.5486329c0 .4831914-.1953125.9170775-.5078125 1.2424921-.3222656.3155536-.7519531.5226356-1.2304687.5226356h-6.8066407c-.4492187 0-.8691406-.1774988-1.1816406-.4634693-.0195312-.0197221-.0390625-.0394442-.0585937-.0493052-.3125-.3155536-.5175782-.7593008-.5175782-1.2523532v-18.5486329c0-.4831914.1953125-.9269386.5175782-1.2523532.3222656-.3254146.7519531-.5226356 1.2304687-.5226356z"/><path d="m23.4453125 10c3.2226563 0 6.1425781 1.3213805 8.2519531 3.4513671s3.4179688 5.0784402 3.4179688 8.3325863-1.3085938 6.2025997-3.4179688 8.3325863c-2.109375 2.1299865-5.0292968 3.4513671-8.2519531 3.4513671-3.2226562 0-6.1425781-1.3213806-8.2519531-3.4513671-2.109375-2.1299866-3.4179688-5.0784402-3.4179688-8.3325863s1.3085938-6.2025997 3.4179688-8.3325863 5.0292969-3.4513671 8.2519531-3.4513671zm7.1484375 4.5656656c-1.8261719-1.8440161-4.3554688-2.9878978-7.1484375-2.9878978-2.7929688 0-5.3222656 1.1438817-7.1484375 2.9878978-1.8261719 1.8440162-2.9589844 4.3980278-2.9589844 7.2182878s1.1328125 5.3742716 2.9589844 7.2182877c1.8261719 1.8440162 4.3554687 2.9878979 7.1484375 2.9878979 2.7929687 0 5.3222656-1.1438817 7.1484375-2.9878979 1.8261719-1.8440161 2.9589844-4.3980277 2.9589844-7.2182877s-1.1328125-5.3742716-2.9589844-7.2182878z"/></g><path d="m26.6972656 23.6476916c0 .4338862-.078125.8184671-.234375 1.1734648-.1464843.3451367-.3710937.6508293-.6445312.8973555-.2734375.2563872-.6152344.4536082-1.0058594.601524-.390625.1479157-.8300781.2465262-1.3085937.2859704l-.15625 1.617212c-.0097657.0394442-.0195313.0788884-.0292969.1084715-.0195313.0295832-.0488281.0591663-.0976563.0788884-.0488281.0197221-.1074218.0394442-.1953125.0493053-.078125.009861-.1855468.0197221-.3125.0197221-.15625 0-.2929687-.0098611-.3808593-.0197221-.0976563-.0197221-.1757813-.0394442-.2246094-.0690274-.0488281-.0295831-.0878906-.0690273-.1074219-.1084715-.0195312-.0493053-.0195312-.0986105-.0097656-.1479158l.15625-1.5284625c-.2148438-.0295832-.4199219-.0690274-.6054688-.1183326-.1855468-.0493053-.3613281-.0986105-.5175781-.1577768s-.2929687-.1183326-.4003906-.1774989-.1953125-.1183326-.2539063-.1774989c-.0585937-.0591662-.0976562-.1479157-.1269531-.2563872-.0292969-.1084716-.0390625-.2761094-.0390625-.5029135 0-.1676378.0097656-.3155536.0195312-.4240251.0097657-.1084716.0292969-.197221.0488282-.2563873.0292968-.0591663.0585937-.0986105.0976562-.1281936.0390625-.0197221.078125-.0295832.1269532-.0295832.0683593 0 .15625.0394442.2832031.1084716.1269531.0788884.2832031.1577768.4785156.2465262s.4296875.1676378.703125.2465262.6054688.1084716.9765625.1084716c.5859375 0 1.015625-.1084716 1.2988281-.3254147.2832032-.216943.4296875-.5127745.4296875-.8776333 0-.2366652-.0585937-.4437472-.1855468-.5916629-.1269532-.1577768-.2832032-.2958315-.4882813-.4141641s-.4296875-.2268041-.6933594-.3155536c-.2539062-.0887494-.5175781-.1873599-.7910156-.2958314-.2636719-.1084716-.5273437-.2268041-.7910156-.3648588-.2539063-.1380547-.4882813-.3155536-.6933594-.5226356s-.3710937-.4536083-.4882813-.7494397c-.1269531-.2958315-.1855468-.6508293-.1855468-1.0649933 0-.3747199.0683594-.7198566.1855468-1.0255491.1269532-.3056925.3027344-.5818019.5371094-.808606.234375-.2366652.5175782-.4240251.859375-.5620798.3417969-.1479157.7324219-.2465262 1.1621094-.2958314l.1464844-1.5186016c.0097656-.0394442.0195312-.0788884.0292969-.0986105.0195312-.0295831.0488281-.0493052.0976562-.0788884.0488281-.019722.1074219-.0394441.1953125-.0493052.078125-.009861.1855469-.0197221.3125-.0197221.15625 0 .2832031.0098611.3808594.0197221.0976562.0197221.1855469.0394442.234375.0690273.0585937.0295832.0878906.0690274.1074219.1084716.0195312.0493052.0195312.0986105.0195312.1479157l-.1464844 1.4298521c.1367188.0197221.2832032.0493052.4394532.0788884.15625.0394442.3027343.0788884.4296875.1281936.1367187.0493053.2539062.0986105.3710937.1479158.1074219.0493052.1855469.0986104.2246094.1479157.0390625.0394442.078125.0887494.0976562.1281936.0195313.0394442.0390625.0986105.0488282.1577768.0097656.0591663.0195312.1380547.0292968.2268041.0097657.0887495.0097657.18736.0097657.3056925 0 .1577768 0 .2859705-.0097657.384581-.0097656.0986104-.0195312.1774988-.0390625.2268041-.0195312.0493052-.0390625.0887494-.0683593.1084715-.0292969.0197221-.0488282.0295832-.0878907.0295832-.0683593 0-.15625-.0295832-.2832031-.0986105-.1269531-.0690274-.2734375-.1380547-.4589844-.2070821-.1855468-.0788883-.390625-.1479157-.625-.207082-.234375-.0690273-.4980468-.0986105-.78125-.0986105-.2539062 0-.4785156.0295832-.6640625.0788884-.1855468.0493053-.3320312.1183326-.4492187.2169431-.1171875.0887494-.1953125.197221-.2539063.3254146-.0488281.1281936-.078125.2662483-.078125.4141641 0 .2366651.0585938.4338861.1855469.5916629s.2929688.2958315.4980469.414164c.2050781.1183326.4394531.2169431.703125.3155536s.5273437.197221.8007812.3056925c.2734375.1084716.5371094.2268041.8007813.3648588s.4980469.3056925.703125.5127746c.2050781.207082.3710937.4536082.4980469.7395786.1269531.2859705.1855468.6311072.1855468 1.0452712z" fill="#f7921e"/></g></svg>