<?xml version="1.0" encoding="UTF-8"?>
<svg width="64px" height="64px" viewBox="0 0 64 64" version="1.1" xmlns="http://www.w3.org/2000/svg" xmlns:xlink="http://www.w3.org/1999/xlink">
    <!-- Generator: Sketch 50.2 (55047) - http://www.bohemiancoding.com/sketch -->
    <title>annual-fee</title>
    <desc>Created with Sketch.</desc>
    <defs></defs>
    <g id="annual-fee" stroke="none" stroke-width="1" fill="none" fill-rule="evenodd">
        <g id="Icons/AnnualFee">
            <path
                d="M49.85,48.8888889 L14.15,48.8888889 C13.5704,48.8888889 13.1,48.416 13.1,47.8333333 L13.1,25.6666667 L50.9,25.6666667 L50.9,47.8333333 C50.9,48.416 50.4296,48.8888889 49.85,48.8888889 M14.15,17.2222222 L19.4,17.2222222 L19.4,20.3888889 C19.4,20.9715556 19.8704,21.4444444 20.45,21.4444444 C21.0296,21.4444444 21.5,20.9715556 21.5,20.3888889 L21.5,17.2222222 L42.5,17.2222222 L42.5,20.3888889 C42.5,20.9715556 42.9704,21.4444444 43.55,21.4444444 C44.1296,21.4444444 44.6,20.9715556 44.6,20.3888889 L44.6,17.2222222 L49.85,17.2222222 C50.4296,17.2222222 50.9,17.6951111 50.9,18.2777778 L50.9,23.5555556 L13.1,23.5555556 L13.1,18.2777778 C13.1,17.6951111 13.5704,17.2222222 14.15,17.2222222 M49.85,15.1111111 L44.6,15.1111111 L44.6,14.0555556 C44.6,13.4728889 44.1296,13 43.55,13 C42.9704,13 42.5,13.4728889 42.5,14.0555556 L42.5,15.1111111 L21.5,15.1111111 L21.5,14.0555556 C21.5,13.4728889 21.0296,13 20.45,13 C19.8704,13 19.4,13.4728889 19.4,14.0555556 L19.4,15.1111111 L14.15,15.1111111 C12.4133,15.1111111 11,16.5318889 11,18.2777778 L11,47.8333333 C11,49.5792222 12.4133,51 14.15,51 L49.85,51 C51.5867,51 53,49.5792222 53,47.8333333 L53,18.2777778 C53,16.5318889 51.5867,15.1111111 49.85,15.1111111"
                id="Fill-1565" fill="#062E51"></path>
            <path
                d="M33.4847,37.2777778 L39.0413,31.6917778 C39.4508,31.2801111 39.4508,30.6108889 39.0413,30.1971111 C38.6318,29.7875556 37.9661,29.7875556 37.5566,30.1971111 L32,35.7852222 L26.4413,30.1971111 C26.0339,29.7875556 25.3682,29.7875556 24.9587,30.1971111 C24.5492,30.6108889 24.5492,31.2801111 24.9587,31.6917778 L30.5153,37.2777778 L24.9587,42.8637778 C24.5492,43.2754444 24.5492,43.9446667 24.9587,44.3584444 C25.1645,44.5632222 25.4333,44.6645556 25.7021,44.6645556 C25.9709,44.6645556 26.2397,44.5611111 26.4455,44.3584444 L32.0021,38.7703333 L37.5587,44.3584444 C37.7645,44.5632222 38.0333,44.6645556 38.3021,44.6645556 C38.5709,44.6645556 38.8397,44.5611111 39.0455,44.3584444 C39.455,43.9446667 39.455,43.2754444 39.0455,42.8637778 L33.4889,37.2777778 L33.4847,37.2777778 Z"
                id="Fill-1566" fill="#F7921E"></path>
        </g>
    </g>
</svg>
