<svg height="64" viewBox="0 0 64 64" width="64" xmlns="http://www.w3.org/2000/svg"><g fill="none" fill-rule="evenodd"><rect fill="#fff" height="30" rx="3" stroke="#062e51" stroke-width="2" width="42.307692" x="1" y="22"/><rect fill="#fff" height="30" rx="3" stroke="#fff" stroke-width="2" width="42.307692" x="20.692308" y="12"/><g fill="#062e51"><path d="m60.6769231 40.7142857h-37.6615385c-.6114461 0-1.1076923-.512-1.1076923-1.1428571v-12.5714286h39.8769231v12.5714286c0 .6308571-.4962462 1.1428571-1.1076923 1.1428571zm-38.7692308-16h39.8769231v-6.8571428h-39.8769231zm1.1076923-11.4285714h37.6615385c.6114461 0 1.1076923.512 1.1076923 1.1428571v1.1428572h-39.8769231v-1.1428572c0-.6308571.4962462-1.1428571 1.1076923-1.1428571zm37.6615385-2.2857143h-37.6615385c-1.8321231 0-3.3230769 1.5382857-3.3230769 3.4285714v25.1428572c0 1.8902857 1.4909538 3.4285714 3.3230769 3.4285714h37.6615385c1.8321231 0 3.3230769-1.5382857 3.3230769-3.4285714v-25.1428572c0-1.8902857-1.4909538-3.4285714-3.3230769-3.4285714z"/><path d="m57.1076923 39h2.9538462v-2h-2.9538462z"/><path d="m49.2307692 39h5.9076923v-2h-5.9076923z"/></g><path d="m42.3384615 39h4.923077v-2h-4.923077z" fill="#fff"/><path d="m14.4773215 42.294c-.3839616-.39-1.0081453-.39-1.3921069 0l-2.2565129 2.292v-8.586c0-.554-.4410635-1-.98451689-1-.54345334 0-.98451693.446-.98451693 1v8.586l-2.25651281-2.292c-.3839616-.39-1.00814534-.39-1.39210694 0-.38396161.388-.38396161 1.024 0 1.414l3.93806773 4c.19296532.196.44500165.292.69703799.292.25203635 0 .50407265-.098.69703795-.292l3.9380678-4c.3839616-.39.3839616-1.026 0-1.414z" fill="#f7921e" transform="matrix(.70710678 .70710678 -.70710678 .70710678 32.228803 5.192786)"/><path d="m18.4196635 30.2923349-3.9388554-3.9998461c-.3840384-.3899851-1.008347-.3899851-1.3923854 0l-3.93885544 3.9998461c-.3840384.3879851-.3840384 1.0239606 0 1.4139456.38403841.3879851 1.00834704.3879851 1.39238544 0l2.2569641-2.2919118v8.5856698c0 .5519787.4411518.9999615.9847139.9999615.543562 0 .9847138-.4479828.9847138-.9999615v-8.5856698l2.2569642 2.2919118c.1930039.1959925.4450906.2919888.6971774.2919888.2520867 0 .5041735-.0979962.6971774-.2919888.3840384-.389985.3840384-1.0259605 0-1.4139456" fill="#f7921e" transform="matrix(.70710678 .70710678 -.70710678 .70710678 27.018391 -.228165)"/></g></svg>