<svg fill="none" height="46" viewBox="0 0 220 46" width="220" xmlns="http://www.w3.org/2000/svg" xmlns:xlink="http://www.w3.org/1999/xlink"><clipPath id="a"><path d="m0 0h220v46h-220z"/></clipPath><g clip-path="url(#a)"><circle cx="23" cy="23" fill="#a63a33" r="23"/><g stroke="#fff" stroke-linejoin="round" stroke-width="1.5"><path d="m10 29h26c.5523 0 1-.4477 1-1v-14c0-.5523-.4477-1-1-1h-26c-.55228 0-1 .4477-1 1v14c0 .5523.44772 1 1 1z"/><path d="m11 32h24" stroke-linecap="round"/><path d="m13 35h20" stroke-linecap="round"/><path d="m23 26c2.7614 0 5-2.2386 5-5s-2.2386-5-5-5-5 2.2386-5 5 2.2386 5 5 5z" stroke-linecap="round"/><path d="m37 18c-1.3261 0-2.5979-.5268-3.5355-1.4645-.9377-.9376-1.4645-2.2094-1.4645-3.5355" stroke-linecap="round"/><path d="m9 18c.65661 0 1.3068-.1293 1.9134-.3806s1.1578-.6196 1.6221-1.0839.8326-1.0155 1.0839-1.6221.3806-1.2568.3806-1.9134" stroke-linecap="round"/><path d="m37 24c-1.3261 0-2.5979.5268-3.5355 1.4645-.9377.9376-1.4645 2.2094-1.4645 3.5355" stroke-linecap="round"/><path d="m9 24c.65661 0 1.3068.1293 1.9134.3806s1.1578.6196 1.6221 1.0839.8326 1.0155 1.0839 1.6221.3806 1.2568.3806 1.9134" stroke-linecap="round"/></g><path d="m55.6445 30.5234 1.2657-.1757 5.9648-15.4102h1.9805l5.8593 15.4102 1.254.1757v1.4766h-4.8985v-1.4766l1.2891-.2226-1.125-3.1406h-6.8321l-1.1601 3.1406 1.289.2226v1.4766h-4.8867zm5.4727-5.2968h5.414l-2.6484-7.3243h-.0703zm18.1992 5.2148c.7656 0 1.4375-.2344 2.0156-.7031.586-.4766.8789-1.0586.8789-1.7461h2.0743l.0234.0703c.0391 1.0937-.4492 2.0664-1.4648 2.918-1.0079.8437-2.1836 1.2656-3.5274 1.2656-1.8437 0-3.2539-.6016-4.2305-1.8047-.9687-1.2031-1.4531-2.7148-1.4531-4.5352v-.4921c0-1.8047.4883-3.3086 1.4649-4.5118.9765-1.2109 2.3828-1.8164 4.2187-1.8164 1.0156 0 1.9258.168 2.7305.5039.8125.336 1.4843.7969 2.0156 1.3829l.1055 2.8125h-1.8399l-.5039-1.9922c-.2734-.2657-.625-.4805-1.0547-.6446-.4297-.164-.914-.2461-1.4531-.2461-1.2109 0-2.0781.4375-2.6016 1.3125-.5156.8672-.7734 1.9336-.7734 3.1993v.4921c0 1.2969.2578 2.379.7734 3.2461.5157.8594 1.3829 1.2891 2.6016 1.2891zm6.7852.082 1.9101-.3281v-9.0586l-1.9101-.3281v-1.4883h3.9843l.1524 1.6524c.4062-.6016.9297-1.0665 1.5703-1.3946s1.3828-.4922 2.2266-.4922c.8437 0 1.5664.1953 2.1679.586.6094.3906 1.0664.9765 1.3711 1.7578.3985-.7188.9258-1.2891 1.582-1.7109.6563-.4219 1.4218-.6329 2.2968-.6329 1.297 0 2.32.4453 3.07 1.336.75.8828 1.125 2.2148 1.125 3.9961v5.7773l1.911.3281v1.4766h-6.141v-1.4766l1.91-.3281v-5.8008c0-1.25-.215-2.1328-.644-2.6484-.43-.5234-1.067-.7852-1.911-.7852-.8042 0-1.4527.2852-1.9449.8555-.4843.5625-.7656 1.2734-.8437 2.1328v6.2461l1.9101.3281v1.4766h-6.1289v-1.4766l1.9102-.3281v-5.8008c0-1.1875-.2227-2.0547-.668-2.6015-.4375-.5547-1.0742-.8321-1.9101-.8321-.7032 0-1.2813.1446-1.7344.4336-.4531.2891-.8008.6953-1.043 1.2188v7.582l1.9102.3281v1.4766h-6.1289zm28.8164 1.7227c-1.766 0-3.172-.5859-4.219-1.7578-1.039-1.1797-1.558-2.7071-1.558-4.5821v-.5156c0-1.8047.535-3.3047 1.605-4.5 1.078-1.2031 2.352-1.8047 3.82-1.8047 1.704 0 2.993.5157 3.868 1.5469.882 1.0313 1.324 2.4063 1.324 4.125v1.4414h-8.227l-.035.0586c.024 1.2188.332 2.2227.926 3.0117.594.7813 1.426 1.1719 2.496 1.1719.781 0 1.465-.1094 2.051-.3281.593-.2266 1.105-.5352 1.535-.9258l.902 1.5c-.453.4375-1.054.8086-1.804 1.1133-.743.2969-1.637.4453-2.684.4453zm-.352-11.3438c-.773 0-1.433.3282-1.98.9844-.547.6485-.883 1.4649-1.008 2.4492l.024.0586h5.847v-.3047c0-.9062-.242-1.664-.726-2.2734-.485-.6094-1.203-.9141-2.157-.9141zm13.243 9.6211 1.91-.3281v-13.4414l-1.91-.3281v-1.4883h13.183v4.1016h-1.969l-.187-2.2852h-6.809v5.8828h6.598v1.8164h-6.598v5.7422l1.911.3281v1.4766h-6.129zm15.14 0 1.91-.3281v-9.0586l-1.91-.3281v-1.4883h4.219v10.875l1.91.3281v1.4766h-6.129zm4.219-14.4492h-2.309v-2.3554h2.309zm3.34 14.4492 1.91-.3281v-9.0586l-1.91-.3281v-1.4883h3.972l.165 1.8867c.421-.6718.949-1.1914 1.582-1.5586.64-.375 1.367-.5625 2.179-.5625 1.367 0 2.426.4024 3.176 1.2071.75.7968 1.125 2.0312 1.125 3.7031v6.1992l1.91.3281v1.4766h-6.129v-1.4766l1.91-.3281v-6.1523c0-1.1172-.222-1.9102-.668-2.3789-.437-.4688-1.109-.7032-2.015-.7032-.664 0-1.254.1602-1.77.4805-.507.3203-.914.7578-1.218 1.3125v7.4414l1.91.3281v1.4766h-6.129zm24.058 1.4766c-.07-.3438-.125-.6523-.164-.9258-.039-.2734-.066-.5469-.082-.8203-.445.5703-1.004 1.0469-1.675 1.4297-.665.375-1.375.5625-2.133.5625-1.321 0-2.324-.3203-3.012-.9609-.688-.6485-1.031-1.5586-1.031-2.7305 0-1.2031.484-2.1289 1.453-2.7774.976-.6562 2.312-.9843 4.008-.9843h2.379v-1.4766c0-.7422-.235-1.3281-.704-1.7578-.468-.4375-1.121-.6563-1.957-.6563-.578 0-1.089.0743-1.535.2227-.437.1484-.793.3516-1.066.6094l-.246 1.3359h-1.781v-2.4609c.578-.461 1.277-.8282 2.097-1.1016.821-.2812 1.711-.4219 2.672-.4219 1.438 0 2.602.3672 3.492 1.1016.891.7344 1.336 1.7852 1.336 3.1523v6.1055.4805c.008.1562.02.3125.035.4687l.938.1289v1.4766zm-3.714-1.6875c.765 0 1.464-.1836 2.097-.5508s1.086-.8086 1.36-1.3242v-2.0859h-2.461c-.946 0-1.696.2187-2.25.6562-.547.4375-.821.9688-.821 1.5938 0 .5546.172.9804.516 1.2773.344.2891.863.4336 1.559.4336zm8.32.2109 1.91-.3281v-9.0586l-1.91-.3281v-1.4883h3.973l.164 1.8867c.421-.6718.949-1.1914 1.582-1.5586.64-.375 1.367-.5625 2.179-.5625 1.368 0 2.426.4024 3.176 1.2071.75.7968 1.125 2.0312 1.125 3.7031v6.1992l1.91.3281v1.4766h-6.129v-1.4766l1.91-.3281v-6.1523c0-1.1172-.222-1.9102-.667-2.3789-.438-.4688-1.11-.7032-2.016-.7032-.664 0-1.254.1602-1.77.4805-.507.3203-.914.7578-1.218 1.3125v7.4414l1.91.3281v1.4766h-6.129zm21.363-.082c.766 0 1.438-.2344 2.016-.7031.586-.4766.879-1.0586.879-1.7461h2.074l.023.0703c.039 1.0937-.449 2.0664-1.465 2.918-1.007.8437-2.183 1.2656-3.527 1.2656-1.844 0-3.254-.6016-4.23-1.8047-.969-1.2031-1.453-2.7148-1.453-4.5352v-.4921c0-1.8047.488-3.3086 1.464-4.5118.977-1.2109 2.383-1.8164 4.219-1.8164 1.016 0 1.926.168 2.731.5039.812.336 1.484.7969 2.015 1.3829l.106 2.8125h-1.84l-.504-1.9922c-.273-.2657-.625-.4805-1.055-.6446-.429-.164-.914-.2461-1.453-.2461-1.211 0-2.078.4375-2.601 1.3125-.516.8672-.774 1.9336-.774 3.1993v.4921c0 1.2969.258 2.379.774 3.2461.515.8594 1.382 1.2891 2.601 1.2891zm13.031 1.8047c-1.765 0-3.171-.5859-4.218-1.7578-1.039-1.1797-1.559-2.7071-1.559-4.5821v-.5156c0-1.8047.535-3.3047 1.606-4.5 1.078-1.2031 2.351-1.8047 3.82-1.8047 1.703 0 2.992.5157 3.867 1.5469.883 1.0313 1.324 2.4063 1.324 4.125v1.4414h-8.226l-.035.0586c.023 1.2188.332 2.2227.925 3.0117.594.7813 1.426 1.1719 2.496 1.1719.782 0 1.465-.1094 2.051-.3281.594-.2266 1.106-.5352 1.535-.9258l.903 1.5c-.453.4375-1.055.8086-1.805 1.1133-.742.2969-1.637.4453-2.684.4453zm-.351-11.3438c-.774 0-1.434.3282-1.981.9844-.546.6485-.882 1.4649-1.007 2.4492l.023.0586h5.848v-.3047c0-.9062-.243-1.664-.727-2.2734s-1.203-.9141-2.156-.9141z" fill="#391313"/></g></svg>